<svg width="106" height="18" viewBox="0 0 106 18" fill="none" xmlns="http://www.w3.org/2000/svg">
<g clip-path="url(#clip0_64_25)">
<path d="M16.4884 8.0422L13.3173 10.8097L14.2672 14.93C14.3175 15.1454 14.3031 15.3708 14.226 15.5781C14.1488 15.7854 14.0123 15.9654 13.8334 16.0955C13.6545 16.2256 13.4413 16.3001 13.2203 16.3096C12.9993 16.3192 12.7804 16.2634 12.591 16.1492L8.9973 13.9695L5.41136 16.1492C5.22192 16.2634 5.00303 16.3192 4.78205 16.3096C4.56107 16.3001 4.34781 16.2256 4.16894 16.0955C3.99006 15.9654 3.85351 15.7854 3.77635 15.5781C3.69919 15.3708 3.68485 15.1454 3.73511 14.93L4.68363 10.8139L1.51183 8.0422C1.34407 7.89752 1.22276 7.70652 1.16312 7.49317C1.10348 7.27981 1.10815 7.0536 1.17656 6.84289C1.24497 6.63218 1.37407 6.44636 1.54766 6.30873C1.72126 6.1711 1.93162 6.08778 2.15238 6.06923L6.33316 5.70712L7.96511 1.81463C8.05034 1.61038 8.19409 1.43591 8.37826 1.3132C8.56243 1.19048 8.7788 1.125 9.00011 1.125C9.22143 1.125 9.43779 1.19048 9.62197 1.3132C9.80614 1.43591 9.94989 1.61038 10.0351 1.81463L11.672 5.70712L15.8514 6.06923C16.0721 6.08778 16.2825 6.1711 16.4561 6.30873C16.6297 6.44636 16.7588 6.63218 16.8272 6.84289C16.8956 7.0536 16.9003 7.27981 16.8406 7.49317C16.781 7.70652 16.6597 7.89752 16.4919 8.0422H16.4884Z" fill="#16A571"/>
</g>
<g clip-path="url(#clip1_64_25)">
<path d="M38.4884 8.0422L35.3173 10.8097L36.2672 14.93C36.3175 15.1454 36.3031 15.3708 36.226 15.5781C36.1488 15.7854 36.0123 15.9654 35.8334 16.0955C35.6545 16.2256 35.4413 16.3001 35.2203 16.3096C34.9993 16.3192 34.7804 16.2634 34.591 16.1492L30.9973 13.9695L27.4114 16.1492C27.2219 16.2634 27.003 16.3192 26.782 16.3096C26.5611 16.3001 26.3478 16.2256 26.1689 16.0955C25.9901 15.9654 25.8535 15.7854 25.7764 15.5781C25.6992 15.3708 25.6848 15.1454 25.7351 14.93L26.6836 10.8139L23.5118 8.0422C23.3441 7.89752 23.2228 7.70652 23.1631 7.49317C23.1035 7.27981 23.1082 7.0536 23.1766 6.84289C23.245 6.63218 23.3741 6.44636 23.5477 6.30873C23.7213 6.1711 23.9316 6.08778 24.1524 6.06923L28.3332 5.70712L29.9651 1.81463C30.0503 1.61038 30.1941 1.43591 30.3783 1.3132C30.5624 1.19048 30.7788 1.125 31.0001 1.125C31.2214 1.125 31.4378 1.19048 31.622 1.3132C31.8061 1.43591 31.9499 1.61038 32.0351 1.81463L33.672 5.70712L37.8514 6.06923C38.0721 6.08778 38.2825 6.1711 38.4561 6.30873C38.6297 6.44636 38.7588 6.63218 38.8272 6.84289C38.8956 7.0536 38.9003 7.27981 38.8406 7.49317C38.781 7.70652 38.6597 7.89752 38.4919 8.0422H38.4884Z" fill="#16A571"/>
</g>
<g clip-path="url(#clip2_64_25)">
<path d="M60.4884 8.0422L57.3173 10.8097L58.2672 14.93C58.3175 15.1454 58.3031 15.3708 58.226 15.5781C58.1488 15.7854 58.0123 15.9654 57.8334 16.0955C57.6545 16.2256 57.4413 16.3001 57.2203 16.3096C56.9993 16.3192 56.7804 16.2634 56.591 16.1492L52.9973 13.9695L49.4114 16.1492C49.2219 16.2634 49.003 16.3192 48.782 16.3096C48.5611 16.3001 48.3478 16.2256 48.1689 16.0955C47.9901 15.9654 47.8535 15.7854 47.7764 15.5781C47.6992 15.3708 47.6848 15.1454 47.7351 14.93L48.6836 10.8139L45.5118 8.0422C45.3441 7.89752 45.2228 7.70652 45.1631 7.49317C45.1035 7.27981 45.1082 7.0536 45.1766 6.84289C45.245 6.63218 45.3741 6.44636 45.5477 6.30873C45.7213 6.1711 45.9316 6.08778 46.1524 6.06923L50.3332 5.70712L51.9651 1.81463C52.0503 1.61038 52.1941 1.43591 52.3783 1.3132C52.5624 1.19048 52.7788 1.125 53.0001 1.125C53.2214 1.125 53.4378 1.19048 53.622 1.3132C53.8061 1.43591 53.9499 1.61038 54.0351 1.81463L55.672 5.70712L59.8514 6.06923C60.0721 6.08778 60.2825 6.1711 60.4561 6.30873C60.6297 6.44636 60.7588 6.63218 60.8272 6.84289C60.8956 7.0536 60.9003 7.27981 60.8406 7.49317C60.781 7.70652 60.6597 7.89752 60.4919 8.0422H60.4884Z" fill="#16A571"/>
</g>
<g clip-path="url(#clip3_64_25)">
<path d="M82.4884 8.0422L79.3173 10.8097L80.2672 14.93C80.3175 15.1454 80.3031 15.3708 80.226 15.5781C80.1488 15.7854 80.0123 15.9654 79.8334 16.0955C79.6545 16.2256 79.4413 16.3001 79.2203 16.3096C78.9993 16.3192 78.7804 16.2634 78.591 16.1492L74.9973 13.9695L71.4114 16.1492C71.2219 16.2634 71.003 16.3192 70.782 16.3096C70.5611 16.3001 70.3478 16.2256 70.1689 16.0955C69.9901 15.9654 69.8535 15.7854 69.7764 15.5781C69.6992 15.3708 69.6848 15.1454 69.7351 14.93L70.6836 10.8139L67.5118 8.0422C67.3441 7.89752 67.2228 7.70652 67.1631 7.49317C67.1035 7.27981 67.1082 7.0536 67.1766 6.84289C67.245 6.63218 67.3741 6.44636 67.5477 6.30873C67.7213 6.1711 67.9316 6.08778 68.1524 6.06923L72.3332 5.70712L73.9651 1.81463C74.0503 1.61038 74.1941 1.43591 74.3783 1.3132C74.5624 1.19048 74.7788 1.125 75.0001 1.125C75.2214 1.125 75.4378 1.19048 75.622 1.3132C75.8061 1.43591 75.9499 1.61038 76.0351 1.81463L77.672 5.70712L81.8514 6.06923C82.0721 6.08778 82.2825 6.1711 82.4561 6.30873C82.6297 6.44636 82.7588 6.63218 82.8272 6.84289C82.8956 7.0536 82.9003 7.27981 82.8406 7.49317C82.781 7.70652 82.6597 7.89752 82.4919 8.0422H82.4884Z" fill="#16A571"/>
</g>
<g clip-path="url(#clip4_64_25)">
<path d="M104.488 8.0422L101.317 10.8097L102.267 14.93C102.317 15.1454 102.303 15.3708 102.226 15.5781C102.149 15.7854 102.012 15.9654 101.833 16.0955C101.655 16.2256 101.441 16.3001 101.22 16.3096C100.999 16.3192 100.78 16.2634 100.591 16.1492L96.9973 13.9695L93.4114 16.1492C93.2219 16.2634 93.003 16.3192 92.782 16.3096C92.5611 16.3001 92.3478 16.2256 92.1689 16.0955C91.9901 15.9654 91.8535 15.7854 91.7764 15.5781C91.6992 15.3708 91.6848 15.1454 91.7351 14.93L92.6836 10.8139L89.5118 8.0422C89.3441 7.89752 89.2228 7.70652 89.1631 7.49317C89.1035 7.27981 89.1082 7.0536 89.1766 6.84289C89.245 6.63218 89.3741 6.44636 89.5477 6.30873C89.7213 6.1711 89.9316 6.08778 90.1524 6.06923L94.3332 5.70712L95.9651 1.81463C96.0503 1.61038 96.1941 1.43591 96.3783 1.3132C96.5624 1.19048 96.7788 1.125 97.0001 1.125C97.2214 1.125 97.4378 1.19048 97.622 1.3132C97.8061 1.43591 97.9499 1.61038 98.0351 1.81463L99.672 5.70712L103.851 6.06923C104.072 6.08778 104.282 6.1711 104.456 6.30873C104.63 6.44636 104.759 6.63218 104.827 6.84289C104.896 7.0536 104.9 7.27981 104.841 7.49317C104.781 7.70652 104.66 7.89752 104.492 8.0422H104.488Z" fill="#16A571"/>
</g>
<defs>
<clipPath id="clip0_64_25">
<rect width="18" height="18" fill="white"/>
</clipPath>
<clipPath id="clip1_64_25">
<rect width="18" height="18" fill="white" transform="translate(22)"/>
</clipPath>
<clipPath id="clip2_64_25">
<rect width="18" height="18" fill="white" transform="translate(44)"/>
</clipPath>
<clipPath id="clip3_64_25">
<rect width="18" height="18" fill="white" transform="translate(66)"/>
</clipPath>
<clipPath id="clip4_64_25">
<rect width="18" height="18" fill="white" transform="translate(88)"/>
</clipPath>
</defs>
</svg>
