<svg width="104" height="40" viewBox="0 0 104 40" fill="none" xmlns="http://www.w3.org/2000/svg">
<path d="M50.176 32V9.408H55.2V32H50.176ZM61.311 32V10.016H66.207V32H61.311ZM57.791 20.608V16.448H69.727V20.608H57.791ZM79.0918 32.352C77.4918 32.352 76.0411 32 74.7398 31.296C73.4384 30.592 72.4144 29.6213 71.6678 28.384C70.9211 27.1467 70.5478 25.76 70.5478 24.224C70.5478 22.6667 70.9211 21.28 71.6678 20.064C72.4358 18.8267 73.4704 17.856 74.7718 17.152C76.0731 16.448 77.5344 16.096 79.1558 16.096C80.3718 16.096 81.4811 16.3093 82.4838 16.736C83.5078 17.1413 84.4144 17.76 85.2038 18.592L82.0678 21.728C81.7051 21.3227 81.2784 21.024 80.7878 20.832C80.3184 20.64 79.7744 20.544 79.1558 20.544C78.4518 20.544 77.8224 20.704 77.2678 21.024C76.7344 21.3227 76.3078 21.7493 75.9878 22.304C75.6891 22.8373 75.5398 23.4667 75.5398 24.192C75.5398 24.9173 75.6891 25.5573 75.9878 26.112C76.3078 26.6667 76.7451 27.104 77.2998 27.424C77.8544 27.744 78.4731 27.904 79.1558 27.904C79.7958 27.904 80.3611 27.7973 80.8518 27.584C81.3638 27.3493 81.8011 27.0293 82.1638 26.624L85.2678 29.76C84.4571 30.6133 83.5398 31.264 82.5158 31.712C81.4918 32.1387 80.3504 32.352 79.0918 32.352ZM94.5598 32.352C92.9598 32.352 91.5091 32 90.2078 31.296C88.9278 30.5707 87.9144 29.5893 87.1678 28.352C86.4211 27.1147 86.0478 25.728 86.0478 24.192C86.0478 22.656 86.4211 21.28 87.1678 20.064C87.9144 18.848 88.9278 17.888 90.2078 17.184C91.4878 16.4587 92.9384 16.096 94.5598 16.096C96.1811 16.096 97.6318 16.448 98.9118 17.152C100.192 17.856 101.205 18.8267 101.952 20.064C102.698 21.28 103.072 22.656 103.072 24.192C103.072 25.728 102.698 27.1147 101.952 28.352C101.205 29.5893 100.192 30.5707 98.9118 31.296C97.6318 32 96.1811 32.352 94.5598 32.352ZM94.5598 27.904C95.2638 27.904 95.8824 27.7547 96.4158 27.456C96.9491 27.136 97.3544 26.6987 97.6318 26.144C97.9304 25.568 98.0798 24.9173 98.0798 24.192C98.0798 23.4667 97.9304 22.8373 97.6318 22.304C97.3331 21.7493 96.9171 21.3227 96.3838 21.024C95.8718 20.704 95.2638 20.544 94.5598 20.544C93.8771 20.544 93.2691 20.704 92.7358 21.024C92.2024 21.3227 91.7864 21.7493 91.4878 22.304C91.1891 22.8587 91.0398 23.4987 91.0398 24.224C91.0398 24.928 91.1891 25.568 91.4878 26.144C91.7864 26.6987 92.2024 27.136 92.7358 27.456C93.2691 27.7547 93.8771 27.904 94.5598 27.904Z" fill="#16A571"/>
<path d="M20 0C8.9543 0 0 8.9543 0 20C11.0457 20 20 11.0457 20 0Z" fill="#16A571"/>
<path d="M20 40C31.0457 40 40 31.0457 40 20C28.9543 20 20 28.9543 20 40Z" fill="#16A571"/>
<path d="M20 0C31.0457 0 40 8.9543 40 20C28.9543 20 20 11.0457 20 0Z" fill="#101010"/>
<path d="M20 40C8.9543 40 -9.65645e-07 31.0457 0 20C11.0457 20 20 28.9543 20 40Z" fill="#101010"/>
</svg>
