<svg width="32" height="32" viewBox="0 0 32 32" fill="none" xmlns="http://www.w3.org/2000/svg">
<path d="M25.95 7H13C12.7348 7 12.4804 6.89464 12.2929 6.70711C12.1054 6.51957 12 6.26522 12 6C12 5.73478 12.1054 5.48043 12.2929 5.29289C12.4804 5.10536 12.7348 5 13 5H26.95C27.2152 5 27.4696 5.10536 27.6571 5.29289C27.8446 5.48043 27.95 5.73478 27.95 6V20C27.95 20.2652 27.8446 20.5196 27.6571 20.7071C27.4696 20.8946 27.2152 21 26.95 21C26.6848 21 26.4304 20.8946 26.2429 20.7071C26.0554 20.5196 25.95 20.2652 25.95 20V7Z" fill="#16A571"/>
<path d="M25.1998 6.30744C25.3974 6.10981 25.6655 5.99878 25.945 5.99878C26.2244 5.99878 26.4925 6.10981 26.6901 6.30744C26.8878 6.50507 26.9988 6.77311 26.9988 7.0526C26.9988 7.33209 26.8878 7.60013 26.6901 7.79776L8.79776 25.6901C8.69991 25.788 8.58374 25.8656 8.45588 25.9186C8.32803 25.9715 8.19099 25.9988 8.0526 25.9988C7.91421 25.9988 7.77718 25.9715 7.64932 25.9186C7.52147 25.8656 7.40529 25.788 7.30744 25.6901C7.20958 25.5923 7.13196 25.4761 7.079 25.3482C7.02604 25.2204 6.99878 25.0833 6.99878 24.945C6.99878 24.8066 7.02604 24.6695 7.079 24.5417C7.13196 24.4138 7.20958 24.2976 7.30744 24.1998L16.2536 15.2536L25.1998 6.30744Z" fill="#16A571"/>
</svg>
