<svg width="32" height="32" viewBox="0 0 32 32" fill="none" xmlns="http://www.w3.org/2000/svg">
<path d="M8.414 15H27C27.2652 15 27.5196 15.1054 27.7071 15.2929C27.8946 15.4805 28 15.7348 28 16C28 16.2653 27.8946 16.5196 27.7071 16.7071C27.5196 16.8947 27.2652 17 27 17H8.414L15.708 24.292C15.8958 24.4798 16.0013 24.7345 16.0013 25C16.0013 25.2656 15.8958 25.5203 15.708 25.708C15.5202 25.8958 15.2656 26.0013 15 26.0013C14.7344 26.0013 14.4798 25.8958 14.292 25.708L5.292 16.708C5.19887 16.6152 5.12499 16.5048 5.07458 16.3833C5.02416 16.2618 4.99821 16.1316 4.99821 16C4.99821 15.8685 5.02416 15.7383 5.07458 15.6168C5.12499 15.4953 5.19887 15.3849 5.292 15.292L14.292 6.29204C14.4798 6.10427 14.7344 5.99878 15 5.99878C15.2656 5.99878 15.5202 6.10427 15.708 6.29204C15.8958 6.47982 16.0013 6.73449 16.0013 7.00004C16.0013 7.26559 15.8958 7.52027 15.708 7.70804L8.414 15Z" fill="#16A571"/>
</svg>
