<svg width="23" height="20" viewBox="0 0 23 20" fill="none" xmlns="http://www.w3.org/2000/svg">
<path d="M19.586 9.00004H1C0.734784 9.00004 0.48043 9.1054 0.292893 9.29294C0.105357 9.48047 0 9.73483 0 10C0 10.2653 0.105357 10.5196 0.292893 10.7071C0.48043 10.8947 0.734784 11 1 11H19.586L12.292 18.292C12.1042 18.4798 11.9987 18.7345 11.9987 19C11.9987 19.2656 12.1042 19.5203 12.292 19.708C12.4798 19.8958 12.7344 20.0013 13 20.0013C13.2656 20.0013 13.5202 19.8958 13.708 19.708L22.708 10.708C22.8011 10.6152 22.875 10.5048 22.9254 10.3833C22.9758 10.2618 23.0018 10.1316 23.0018 10C23.0018 9.86851 22.9758 9.73827 22.9254 9.61678C22.875 9.49529 22.8011 9.38493 22.708 9.29204L13.708 0.292042C13.5202 0.104269 13.2656 -0.0012207 13 -0.0012207C12.7344 -0.0012207 12.4798 0.104269 12.292 0.292042C12.1042 0.479816 11.9987 0.734491 11.9987 1.00004C11.9987 1.26559 12.1042 1.52027 12.292 1.70804L19.586 9.00004Z" fill="white"/>
</svg>
